<?xml version="1.0" encoding="utf-8"?>
<!-- Generator: Adobe Illustrator 26.0.0, SVG Export Plug-In . SVG Version: 6.00 Build 0)  -->
<svg version="1.1" id="Layer_1" xmlns="http://www.w3.org/2000/svg" xmlns:xlink="http://www.w3.org/1999/xlink" x="0px" y="0px"
	 viewBox="0 0 375.34 375.36" style="enable-background:new 0 0 375.34 375.36;" xml:space="preserve">
<style type="text/css">
	.st0{fill:#060606;}
</style>
<g>
	<path class="st0" d="M366.53,45.69c-0.35,13.32-4.97,22.36-12.74,30.1c-29.21,29.1-58.3,58.32-87.54,87.4
		c-2.23,2.22-2.18,3.24,0.02,5.43c35.24,35.09,70.38,70.27,105.54,105.44c4.68,4.68,4.69,5.77,0.08,10.37
		c-29.24,29.25-58.48,58.49-87.73,87.73c-4.27,4.27-5.57,4.27-9.83,0.01c-35.16-35.16-70.35-70.31-105.44-105.54
		c-2.27-2.28-3.47-2.65-5.98-0.12c-24.71,24.94-49.6,49.71-74.38,74.57c-2.09,2.09-4.34,3.57-7.18,4.45
		c-21.66,6.69-43.29,13.47-64.93,20.23c-2.19,0.68-4.38,1.38-6.29-0.56c-1.91-1.93-1.18-4.12-0.5-6.3
		c6.88-21.99,13.76-43.98,20.58-65.99c0.7-2.25,1.98-3.95,3.6-5.56c25.02-24.98,49.99-50.02,75.07-74.95
		c2.21-2.19,2.57-3.27,0.11-5.72C73.73,171.62,38.6,136.42,3.44,101.26c-4.61-4.61-4.6-5.7,0.06-10.36
		C32.66,61.74,61.82,32.58,90.97,3.43c4.6-4.6,5.66-4.59,10.37,0.12c35.16,35.16,70.35,70.3,105.43,105.55
		c2.21,2.22,3.24,2.19,5.44-0.02c29.16-29.33,58.41-58.56,87.68-87.78C313.84,7.36,333,4.74,348.72,14.83
		C360.68,22.5,366.32,33.82,366.53,45.69z M67.15,120.17c2.25,0.03,3.55,0.81,4.37,2.41c1.01,1.95,0.5,3.67-0.93,5.12
		c-4.03,4.09-8.07,8.19-12.2,12.17c-1.37,1.32-1.95,2.18-0.24,3.79c4.18,3.93,8.24,8.01,12.19,12.18c1.44,1.52,2.24,1.27,3.54-0.08
		c3.81-3.96,7.77-7.77,11.62-11.69c2.1-2.14,4.33-3.07,6.89-0.95c2.23,1.85,1.97,4.42-0.68,7.13c-3.84,3.93-7.71,7.84-11.67,11.64
		c-1.37,1.32-1.56,2.14-0.08,3.56c4.16,3.96,8.23,8.02,12.19,12.18c1.43,1.5,2.24,1.3,3.55-0.07c3.8-3.96,7.76-7.78,11.62-11.69
		c2.09-2.12,4.32-3.1,6.88-0.94c2.2,1.85,1.95,4.46-0.67,7.13c-3.84,3.93-7.71,7.84-11.67,11.64c-1.36,1.31-1.6,2.1-0.09,3.55
		c4.87,4.67,9.66,9.42,14.3,14.31c1.64,1.72,2.46,1.12,3.81-0.23c21.34-21.41,42.71-42.79,64.14-64.11c1.51-1.5,1.57-2.32,0.01-3.8
		c-4.52-4.31-8.87-8.79-13.29-13.21c-29.85-29.86-59.71-59.7-89.5-89.61c-1.92-1.93-2.92-2.35-5.1-0.15
		C55.13,51.68,34.01,72.78,12.82,93.81c-1.92,1.9-1.81,2.82,0.04,4.57c4.63,4.37,9.16,8.86,13.5,13.52c1.8,1.92,2.77,1.53,4.35-0.15
		c3.68-3.91,7.58-7.61,11.34-11.44c2.15-2.18,4.56-2.93,6.85-0.6c2.3,2.34,1.41,4.74-0.74,6.86c-4,3.95-7.9,8-11.96,11.88
		c-1.3,1.24-1.35,1.95-0.05,3.21c4.23,4.07,8.42,8.19,12.44,12.46c1.53,1.62,2.32,1.04,3.54-0.22c3.83-3.94,7.75-7.79,11.63-11.68
		C64.85,121.14,65.93,120.1,67.15,120.17z M347.07,296.74c-0.55-0.62-0.94-1.11-1.38-1.55c-2.38-2.39-4.77-4.76-7.16-7.15
		c-31.97-31.98-63.95-63.96-95.92-95.94c-1.34-1.34-2.18-3.12-4.58-0.69c-21.27,21.49-42.67,42.84-64.09,64.17
		c-1.48,1.47-1.62,2.3-0.05,3.81c4.78,4.58,9.46,9.26,14.05,14.04c1.48,1.54,2.34,1.56,3.82,0.01c3.69-3.9,7.59-7.6,11.35-11.43
		c2.17-2.21,4.45-3.39,7.14-1c2.13,1.9,1.8,4.42-0.86,7.13c-3.68,3.74-7.35,7.5-11.15,11.1c-1.64,1.56-2.16,2.55-0.17,4.37
		c4.05,3.7,7.9,7.65,11.68,11.64c1.46,1.54,2.35,1.58,3.83,0.02c3.78-3.99,7.75-7.79,11.62-11.7c2.08-2.1,4.3-3.14,6.87-0.94
		c2.15,1.83,1.88,4.53-0.69,7.14c-3.94,4.01-7.91,7.99-11.94,11.9c-1.27,1.23-1.34,1.99,0,3.28c4.24,4.06,8.38,8.22,12.47,12.44
		c1.25,1.29,1.97,1.3,3.24-0.03c3.87-4.07,7.88-8.01,11.89-11.96c2.7-2.66,5.25-2.95,7.1-0.71c2.1,2.54,1.21,4.79-0.94,6.89
		c-4.02,3.93-7.92,7.97-11.97,11.88c-1.28,1.24-1.33,2,0.01,3.27c4.24,4.06,8.42,8.19,12.45,12.46c1.53,1.61,2.32,0.93,3.49-0.27
		c3.84-3.93,7.72-7.82,11.64-11.68c2.73-2.7,5.22-3.01,7.1-0.78c2.11,2.51,1.27,4.78-0.88,6.89c-4.01,3.94-7.92,7.98-11.96,11.89
		c-1.24,1.2-1.44,1.93-0.06,3.26c5.03,4.86,9.96,9.83,14.85,14.83c1.14,1.17,1.77,1.1,2.93-0.05c21.61-21.68,43.26-43.3,64.9-64.94
		C346.16,297.84,346.59,297.28,347.07,296.74z M292.98,76.82c-0.98-1.03-1.54-1.64-2.13-2.22c-4.41-4.42-9.04-8.65-13.17-13.32
		c-2.34-2.64-3.48-1.99-5.61,0.14c-67.77,67.89-135.61,135.71-203.44,203.55c-3.53,3.53-7.02,7.11-10.62,10.57
		c-1.27,1.22-1.31,1.95,0.01,3.21c4.5,4.33,9,8.67,13.22,13.27c2.21,2.41,3.43,2.62,5.92,0.12c28.16-28.37,56.46-56.59,84.72-84.85
		c42.75-42.75,85.49-85.5,128.25-128.24C290.92,78.25,291.9,77.65,292.98,76.82z M317.14,100.8c-5.59-5.56-10.78-10.42-15.59-15.64
		c-2.19-2.38-3.24-2.01-5.34,0.09c-59.38,59.5-118.83,118.93-178.27,178.38c-11.83,11.84-23.63,23.71-35.53,35.48
		c-1.59,1.57-1.75,2.42-0.05,4.03c4.45,4.19,8.9,8.43,12.96,13c2.41,2.72,3.68,2.1,5.92-0.14
		c70.86-70.98,141.79-141.9,212.73-212.81C314.85,102.31,315.97,101.68,317.14,100.8z M191.33,129.6c1.36-1.22,1.93-1.69,2.45-2.21
		c2.57-2.55,5.03-5.22,7.71-7.64c1.69-1.51,1.31-2.4-0.11-3.82C166.92,81.53,132.49,47.11,98.11,12.64
		c-1.54-1.54-2.44-1.93-4.04-0.1c-2.3,2.63-4.76,5.13-7.4,7.41c-1.88,1.63-1.43,2.53,0.11,4.05c9.6,9.47,19.1,19.03,28.63,28.57
		c24.72,24.72,49.44,49.43,74.13,74.18C190.3,127.51,190.72,128.6,191.33,129.6z M364.67,279.49c-0.95-1.02-1.67-1.86-2.46-2.64
		c-24.27-24.28-48.54-48.56-72.81-72.84c-9.97-9.98-19.99-19.91-29.88-29.97c-1.63-1.66-2.56-1.74-4.1,0.02
		c-2.14,2.43-4.43,4.77-6.89,6.86c-2.13,1.8-2.04,2.86-0.03,4.85c24.44,24.28,48.78,48.68,73.14,73.04
		c9.89,9.89,19.77,19.78,29.67,29.65c0.68,0.68,1.67,2.19,2.23,1.69C357.33,286.78,360.91,283.15,364.67,279.49z M296.94,37.86
		c12.9,12.88,26.23,26.17,39.52,39.51c1.12,1.13,1.83,1.62,3.18,0.18c3.58-3.82,7.52-7.31,10.98-11.24
		c9.98-11.35,9.53-28.53-0.87-39.52c-10.44-11.02-27.63-12.63-39.33-3.08C305.45,27.77,301.46,33.04,296.94,37.86z M36.94,300.83
		c-5.66,18.12-11.24,35.99-17.08,54.7c18.71-5.85,36.61-11.45,54.68-17.09C61.89,325.79,49.63,313.53,36.94,300.83z M331.85,85.11
		c-0.81-0.85-1.48-1.57-2.17-2.27c-10.93-10.93-21.86-21.87-32.8-32.79c-2.11-2.11-4.13-5.61-6.47-5.86
		c-2.71-0.28-4.37,3.83-6.78,5.71c-2.18,1.69-2.38,2.92-0.16,5.08c10.89,10.62,21.54,21.48,32.36,32.18
		c2.35,2.32,4.57,6.72,7.22,6.28c2.82-0.47,5.06-4.43,7.54-6.88C331,86.15,331.36,85.68,331.85,85.11z M50.23,283.46
		c-0.56,0.52-1.02,0.92-1.46,1.35c-1.59,1.58-3.05,3.33-4.79,4.72c-2.43,1.94-2.64,3.25-0.16,5.65
		c10.83,10.5,21.37,21.3,32.09,31.91c2.35,2.32,4.49,6.62,7.25,6.28c2.65-0.33,4.76-4.38,7.29-6.59c1.64-1.43,1.15-2.25-0.13-3.52
		c-12.82-12.75-25.59-25.54-38.38-38.32C51.43,284.44,50.85,283.99,50.23,283.46z"/>
</g>
</svg>
