<?xml version="1.0" encoding="utf-8"?>
<!-- Generator: Adobe Illustrator 26.0.0, SVG Export Plug-In . SVG Version: 6.00 Build 0)  -->
<svg version="1.1" id="Layer_1" xmlns="http://www.w3.org/2000/svg" xmlns:xlink="http://www.w3.org/1999/xlink" x="0px" y="0px"
	 viewBox="0 0 311.29 383.86" style="enable-background:new 0 0 311.29 383.86;" xml:space="preserve">
<style type="text/css">
	.st0{fill:url(#SVGID_1_);}
	.st1{fill:url(#SVGID_00000099628453808633348430000011968062663709284270_);}
	.st2{fill:url(#SVGID_00000013908785345713632650000011045202877825637049_);}
	.st3{fill:url(#SVGID_00000158750522542535932240000007788097380840309922_);}
</style>
<g>
	<linearGradient id="SVGID_1_" gradientUnits="userSpaceOnUse" x1="211.4474" y1="96.0501" x2="71.8256" y2="337.8822">
		<stop  offset="2.005161e-07" style="stop-color:#01E1F8"/>
		<stop  offset="1" style="stop-color:#FF2AE4"/>
	</linearGradient>
	<path class="st0" d="M151.9,383.86c-5.27-2.07-8.83-6.07-12.3-10.36C95.18,318.6,50.67,263.78,6.21,208.93
		c-8.65-10.67-8.22-23.44,1.06-33.6c15.41-16.86,30.86-33.67,46.22-50.57c6.42-7.06,14.3-10.62,23.79-10.62
		c52.24-0.01,104.48-0.01,156.72,0c9.49,0,17.38,3.53,23.8,10.59c15.36,16.9,30.82,33.71,46.22,50.58
		c9.28,10.16,9.73,22.93,1.08,33.61c-45.31,55.93-90.68,111.82-135.97,167.77c-2.84,3.51-6.37,5.7-10.49,7.16
		C156.39,383.86,154.15,383.86,151.9,383.86z M155.6,366.67c0.78-2.13,1.18-3.15,1.53-4.17c18.24-53.62,36.47-107.23,54.7-160.85
		c1.37-4.02,1.36-4.03-3.06-4.03c-64.08,0-128.17,0-192.25,0c-1.21,0-2.42,0-3.63,0c-0.22,0.29-0.43,0.59-0.65,0.88
		c42.16,52,84.32,103.99,126.64,156.19c0.64-1.79-0.23-2.9-0.61-4.02c-11.57-34.06-23.19-68.1-34.79-102.15
		c-3.17-9.31-6.33-18.62-9.42-27.95c-1.1-3.33,0.24-6.33,3.1-7.42c3.07-1.17,6.07,0.32,7.47,3.74c0.28,0.69,0.5,1.41,0.74,2.11
		c11.78,34.65,23.55,69.29,35.33,103.94C145.53,337.14,150.38,351.36,155.6,366.67z M298.65,197.83c-0.74-0.09-1.23-0.21-1.71-0.21
		c-23.06-0.01-46.11,0.06-69.16-0.1c-2.86-0.02-3.24,1.6-3.87,3.48c-8.77,25.8-17.53,51.6-26.31,77.39
		c-8.18,24.03-16.38,48.05-24.51,72.09c-0.28,0.81-1.81,1.71-0.56,2.53c0.98,0.64,1.71-0.6,2.34-1.36c0.32-0.39,0.64-0.77,0.96-1.15
		c40.06-49.4,80.12-98.79,120.16-148.2C296.98,201.07,298.15,199.91,298.65,197.83z M298.22,185.66
		c-16.74-18.31-33.37-36.5-50.24-54.95c-0.49,1.25-0.79,1.93-1.03,2.64c-3.74,10.95-7.42,21.91-11.22,32.84
		c-1.44,4.13-5.33,5.65-8.52,3.46c-2.81-1.94-2.98-4.59-1.92-7.62c3.71-10.69,7.35-21.41,11.01-32.12c1.53-4.48,1.52-4.5-3.09-4.5
		c-20.43-0.01-40.87-0.01-61.3,0.02c-0.89,0-1.98-0.53-2.75,0.57c0.2,0.31,0.37,0.64,0.61,0.9c17.59,19.24,35.2,38.45,52.73,57.74
		c1.5,1.65,3.11,1.73,5,1.72c22.3-0.02,44.61-0.01,66.91-0.03C295.48,186.33,296.62,186.69,298.22,185.66z M208.52,186.16
		c-0.77-0.95-1.13-1.44-1.54-1.88c-16.5-18.04-33.03-36.04-49.45-54.16c-1.78-1.96-2.51-1.36-3.92,0.2
		c-16.21,17.8-32.48,35.54-48.7,53.32c-0.62,0.67-1.64,1.16-1.56,2.53C138.19,186.16,173,186.16,208.52,186.16z M63.4,130.62
		c-16.94,18.53-33.58,36.72-50.72,55.46c23.78,0,46.55,0,69.59,0C75.97,167.55,69.77,149.34,63.4,130.62z M92.33,180.71
		c16.93-18.52,33.45-36.58,50.59-55.32c-6.77,0-12.57,0-18.37,0c-15.7,0-31.4-0.03-47.1,0.05c-1.46,0.01-4.35-1.06-3.1,2.58
		C80.3,145.43,86.24,162.86,92.33,180.71z"/>
	
		<linearGradient id="SVGID_00000024718530577249419540000005009444898517019568_" gradientUnits="userSpaceOnUse" x1="175.6062" y1="10.2298" x2="135.9457" y2="78.9238">
		<stop  offset="2.005161e-07" style="stop-color:#01E1F8"/>
		<stop  offset="1" style="stop-color:#FF2AE4"/>
	</linearGradient>
	<path style="fill:url(#SVGID_00000024718530577249419540000005009444898517019568_);" d="M157.89,0c2.73,2.01,3.47,4.74,3.46,8.06
		c-0.08,24.49-0.04,48.98-0.06,73.46c0,1.36-0.01,2.8-0.42,4.07c-0.82,2.53-2.73,3.78-5.41,3.71c-2.53-0.06-4.29-1.35-5.04-3.71
		c-0.4-1.28-0.42-2.71-0.42-4.07c-0.02-24.49,0.02-48.98-0.06-73.46C149.93,4.74,150.66,2,153.4,0C154.89,0,156.39,0,157.89,0z"/>
	
		<linearGradient id="SVGID_00000153686191067530313100000016801915206476962450_" gradientUnits="userSpaceOnUse" x1="237.8523" y1="37.697" x2="205.4394" y2="93.8377">
		<stop  offset="2.005161e-07" style="stop-color:#01E1F8"/>
		<stop  offset="1" style="stop-color:#FF2AE4"/>
	</linearGradient>
	<path style="fill:url(#SVGID_00000153686191067530313100000016801915206476962450_);" d="M209.48,95.3
		c-4.27-0.1-6.62-4.15-4.63-8.37c2.59-5.52,5.4-10.92,8.12-16.38c5-10.02,9.98-20.04,15-30.04c2.04-4.07,4.81-5.38,7.96-3.91
		c3.29,1.54,4.1,4.79,2.07,8.88c-7.59,15.27-15.23,30.51-22.81,45.79C213.98,93.7,212.35,95.36,209.48,95.3z"/>
	
		<linearGradient id="SVGID_00000175290957297882719070000006457013500194157502_" gradientUnits="userSpaceOnUse" x1="99.9105" y1="48.0252" x2="79.4686" y2="83.4316">
		<stop  offset="2.005161e-07" style="stop-color:#01E1F8"/>
		<stop  offset="1" style="stop-color:#FF2AE4"/>
	</linearGradient>
	<path style="fill:url(#SVGID_00000175290957297882719070000006457013500194157502_);" d="M78.15,36.05
		c1.99,0.17,3.67,1.37,4.68,3.4c7.9,15.8,15.8,31.6,23.61,47.45c1.66,3.37,0.53,6.56-2.44,7.94c-2.85,1.32-5.89,0.29-7.49-2.89
		c-7.95-15.77-15.88-31.56-23.68-47.41C70.75,40.33,73.51,35.91,78.15,36.05z"/>
</g>
</svg>
