<?xml version="1.0" encoding="utf-8"?>
<!-- Generator: Adobe Illustrator 26.0.0, SVG Export Plug-In . SVG Version: 6.00 Build 0)  -->
<svg version="1.1" id="Layer_1" xmlns="http://www.w3.org/2000/svg" xmlns:xlink="http://www.w3.org/1999/xlink" x="0px" y="0px"
	 viewBox="0 0 408.65 313.17" style="enable-background:new 0 0 408.65 313.17;" xml:space="preserve">
<style type="text/css">
	.st0{fill:#FEFFFF;}
</style>
<g>
	<path class="st0" d="M0,15.24c1.23-0.45,1.07-1.72,1.47-2.62C4.92,4.86,10.85,0.66,19.32,0.06C20.38-0.02,21.45,0,22.51,0
		c107.61,0,215.21,0,322.82,0c11.05,0,18.65,5.07,21.42,14.28c0.81,2.69,1.01,5.47,1,8.28c-0.01,43.63,0,87.26,0,130.89
		c0,0.4,0.01,0.8,0,1.2c-0.11,5.19-2.67,8.36-6.64,8.23c-3.91-0.13-6.16-3.01-6.16-8.18c-0.02-40.84-0.01-81.67-0.01-122.51
		c0-3.46,0.05-6.92-0.01-10.38c-0.12-6.33-2.75-8.98-9.01-8.98c-108.01-0.01-216.01-0.01-324.02,0c-6.57,0-9.11,2.58-9.11,9.26
		c-0.01,59.73,0.03,119.45-0.1,179.18c-0.01,3.37,1.33,3.46,3.91,3.45c45.36-0.06,90.71-0.05,136.07-0.02
		c1.85,0,3.75,0.05,5.53,0.48c3.1,0.74,4.69,2.98,4.6,6.12c-0.09,3.15-1.81,5.27-4.93,5.89c-1.67,0.33-3.44,0.31-5.16,0.31
		c-45.22,0.01-90.45,0.05-135.67-0.07c-3.38-0.01-4.62,0.62-4.35,4.25c0.37,4.89,0.07,9.84,0.1,14.76c0.04,6.49,2.69,9.24,9.17,9.28
		c12.9,0.06,25.8,0.02,38.71,0.02c30.86,0,61.72,0,92.58,0.01c1.46,0,2.95-0.06,4.37,0.2c3.12,0.57,4.95,2.55,5.17,5.71
		c0.22,3.15-1.32,5.31-4.32,6.37c-2.46,0.87-5.01,0.55-7.52,0.49c-1.8-0.05-2.47,0.43-2.69,2.35c-1.44,12.14-2.98,24.27-4.63,36.38
		c-0.34,2.51,0.32,3.24,2.83,3.06c3.04-0.23,6.12-0.14,9.17-0.03c4.45,0.15,7.17,2.62,7.21,6.36c0.03,3.8-2.66,6.37-7.09,6.4
		c-10.91,0.08-21.81,0.08-32.72,0c-4.11-0.03-6.85-2.63-6.95-6.17c-0.09-3.54,2.6-6.17,6.63-6.61c2.57-0.28,5.96,1.27,7.49-0.85
		c1.38-1.9,1.01-5.09,1.34-7.72c1.2-9.76,2.19-19.55,3.66-29.27c0.49-3.27-0.14-3.93-3.35-3.92c-36.18,0.11-72.36,0.03-108.54,0.1
		c-7.71,0.02-14.4-1.85-19.35-8.23c-1.81-2.33-2.29-5.27-3.97-7.62C0,166.89,0,91.07,0,15.24z"/>
	<path class="st0" d="M313.02,217.98c0,24.21-0.33,48.42,0.13,72.62c0.27,14.19-10.15,22.74-22.54,22.57
		c-30.32-0.42-60.64-0.12-90.97-0.14c-14.09-0.01-22.24-8.15-22.25-22.3c-0.03-48.55-0.03-97.09,0-145.64
		c0.01-14.15,8.14-22.19,22.32-22.2c30.32-0.02,60.65,0.29,90.97-0.15c12.72-0.18,22.75,8.83,22.47,22.63
		C312.67,169.56,313.02,193.77,313.02,217.98z M245.45,273c17.01,0,34.03-0.06,51.04,0.06c2.79,0.02,3.82-0.4,3.81-3.58
		c-0.14-34.43-0.11-68.86-0.03-103.29c0.01-2.47-0.45-3.36-3.19-3.35c-34.56,0.1-69.12,0.1-103.68,0c-2.71-0.01-3.26,0.83-3.25,3.36
		c0.08,34.43,0.1,68.86-0.03,103.29c-0.01,3.26,1.16,3.58,3.89,3.56C211.15,272.95,228.3,273,245.45,273z M245.44,150.11
		c17.14,0,34.29,0.02,51.43-0.05c1.16-0.01,2.91,1.08,3.38-1.41c1.63-8.73-1.74-12.97-10.52-12.97c-29.5,0-59.01,0-88.51,0
		c-8.91,0-10.97,2.17-11.08,10.96c-0.04,2.75,0.63,3.57,3.48,3.55C210.88,150.04,228.16,150.11,245.44,150.11z M245.5,285.79
		c-17.27,0-34.55-0.02-51.82,0.05c-1.2,0-2.95-0.99-3.5,1.35c-1.88,8.05,1.96,13.02,10.17,13.02c29.63,0,59.26,0,88.9,0
		c9.11,0,10.85-1.91,11.06-10.91c0.07-3.16-0.98-3.6-3.78-3.58C279.52,285.86,262.51,285.79,245.5,285.79z"/>
	<path class="st0" d="M408.64,245.37c0,15.29,0.03,30.58-0.01,45.87c-0.03,13.54-8.28,21.75-21.91,21.79
		c-12.5,0.04-24.99,0.05-37.49,0c-13.2-0.05-21.54-8.01-21.62-21.25c-0.17-30.98-0.16-61.96-0.01-92.94
		c0.06-13.36,8.49-21.42,21.89-21.48c12.5-0.05,24.99-0.07,37.49,0.01c13.3,0.08,21.6,8.44,21.64,21.73
		C408.67,214.52,408.64,229.95,408.64,245.37z M395.84,245.11c0-8.25-0.07-16.49,0.05-24.74c0.03-2.17-0.44-2.94-2.8-2.93
		c-16.49,0.11-32.98,0.12-49.48-0.01c-2.77-0.02-3.26,1.01-3.24,3.46c0.09,16.36,0.1,32.72-0.01,49.08
		c-0.02,2.48,0.69,3.09,3.13,3.08c16.49-0.11,32.98-0.13,49.48,0.01c2.69,0.02,2.96-0.99,2.93-3.22
		C395.78,261.6,395.85,253.36,395.84,245.11z M368.33,285.8c-8.38,0-16.76,0.08-25.13-0.05c-2.3-0.04-3.09,0.65-2.81,2.89
		c0.18,1.44-0.02,2.93,0.13,4.38c0.46,4.56,2.95,7.12,7.46,7.15c13.43,0.1,26.86,0.1,40.29-0.01c4.5-0.04,7.14-2.72,7.54-7.16
		c0.13-1.45-0.09-2.94,0.08-4.38c0.26-2.24-0.53-2.92-2.81-2.88C384.82,285.88,376.57,285.8,368.33,285.8z M367.91,204.66
		c8.37,0,16.74,0.03,25.1-0.04c0.98-0.01,2.33,0.75,2.85-1.15c2.13-7.78-1.92-13.3-9.95-13.31c-11.42-0.02-22.85-0.01-34.27,0
		c-9.3,0-11.39,2.29-11.31,11.58c0.02,2.66,1.02,3,3.27,2.97C351.71,204.6,359.81,204.66,367.91,204.66z"/>
</g>
</svg>
