<?xml version="1.0" encoding="utf-8"?>
<!-- Generator: Adobe Illustrator 26.0.0, SVG Export Plug-In . SVG Version: 6.00 Build 0)  -->
<svg version="1.1" id="Layer_1" xmlns="http://www.w3.org/2000/svg" xmlns:xlink="http://www.w3.org/1999/xlink" x="0px" y="0px"
	 viewBox="0 0 383.85 383.85" style="enable-background:new 0 0 383.85 383.85;" xml:space="preserve">
<style type="text/css">
	.st0{fill:#FEFFFF;}
</style>
<g>
	<path class="st0" d="M0,207.67c0-10.5,0-20.99,0-31.49c1.18-0.41,0.71-1.46,0.79-2.23c2.17-22.16,7.87-43.36,17.32-63.53
		c4.08-8.7,8.78-17.06,14.17-25.02c2.59-3.82,6.9-4.78,10.43-2.53c3.52,2.24,4.45,6.54,2.2,10.51c-0.86,1.52-1.87,2.95-2.8,4.42
		c-4.95,7.9-9.33,16.1-12.89,24.67c0.27,0.23,0.35,0.37,0.43,0.37c23.73,0.04,47.47,0.05,71.2,0.13c1.8,0.01,2.17-0.85,2.7-2.31
		c4.26-11.75,12.48-19.01,24.86-21.19c2.27-0.4,3.09-1.39,3.44-3.45c1.35-7.87,3.24-15.62,5.4-23.3
		c5.17-18.41,11.51-36.34,22.5-52.26c0.52-0.75,1.54-1.29,1.22-2.57c-0.51,0.03-1.01,0-1.49,0.08c-1.84,0.34-3.68,0.67-5.51,1.08
		c-22.91,5.06-43.99,14.31-63.26,27.7c-4.27,2.96-8.66,2.29-11.19-1.43c-2.47-3.62-1.58-7.92,2.47-10.73
		c24.66-17.15,51.78-28.09,81.54-32.5c4.22-0.62,8.6-0.38,12.64-2.11c10.25,0,20.49,0,30.74,0c0.18,0.85,0.86,0.7,1.45,0.75
		c33.91,2.82,64.81,14.04,92.74,33.42c2,1.39,3.32,1.51,5.49,0.22c12.29-7.34,27.73-5.33,37.89,4.7
		c10.24,10.1,12.37,25.74,4.98,38.16c-1.28,2.15-1.2,3.48,0.2,5.49c17.14,24.66,27.92,51.83,32.2,81.59
		c0.57,3.96,0.3,8.08,1.98,11.86c0,10.5,0,20.99,0,31.49c-1.18,0.42-0.67,1.46-0.79,2.23c-0.83,5.81-1.35,11.67-2.46,17.42
		c-15.67,81.16-79.24,142.19-160.7,154.5c-4.33,0.65-8.8,0.44-12.98,2.03c-10.25,0-20.49,0-30.74,0c-0.55-1.28-1.72-0.72-2.61-0.81
		c-33.14-3.34-63.49-14.31-90.84-33.37c-2.01-1.4-3.34-1.48-5.49-0.2c-12.44,7.39-28,5.27-38.15-4.98
		c-10.03-10.12-12.06-25.59-4.71-37.87c1.42-2.38,1.01-3.74-0.42-5.8c-16.92-24.47-27.64-51.4-31.93-80.89
		C1.43,215.84,1.69,211.59,0,207.67z M309.54,137.95c-16.11,0-32.22,0.04-48.33-0.05c-2.26-0.01-2.94,0.39-2.72,2.84
		c0.73,8.08,1.24,16.18,1.7,24.28c1.05,18.47,0.95,36.95-0.11,55.41c-0.14,2.37,0.57,3.46,2.76,4.41
		c8.19,3.58,13.78,9.77,16.68,18.18c0.8,2.31,1.75,2.95,4.13,2.94c24.48-0.1,48.95-0.1,73.43,0c2.53,0.01,3.6-0.62,4.33-3.14
		c9.9-33.96,9.95-67.87,0.06-101.84c-0.75-2.58-1.88-3.12-4.36-3.1C341.26,138.01,325.4,137.95,309.54,137.95z M74.5,245.9
		c15.99,0,31.98-0.05,47.98,0.05c2.44,0.02,3.09-0.53,2.86-3.06c-0.73-8.08-1.24-16.19-1.7-24.29c-1.04-18.35-0.92-36.71,0.09-55.06
		c0.11-2.08-0.26-3.24-2.49-4.17c-8.64-3.59-14.53-9.99-17.56-18.82c-0.7-2.05-1.49-2.66-3.61-2.66
		c-24.61,0.08-49.23,0.09-73.84-0.01c-2.34-0.01-3.16,0.81-3.77,2.89c-9.97,34.08-10.02,68.14-0.07,102.24
		c0.71,2.42,1.77,2.95,4.11,2.94C42.52,245.85,58.51,245.9,74.5,245.9z M203.58,137.95c-12.24,0-24.48,0.05-36.72-0.05
		c-2.06-0.02-2.93,0.5-3.66,2.59c-3.73,10.64-11.21,17.47-22.08,20.45c-1.74,0.48-2.37,1-2.47,2.87
		c-1.39,26.49-0.67,52.93,1.66,79.35c0.17,1.9,0.6,2.81,2.83,2.8c24.61-0.09,49.21-0.07,73.82-0.02c1.77,0,2.45-0.53,3.05-2.27
		c3.79-10.94,11.4-17.97,22.61-20.84c2.05-0.52,2.47-1.28,2.57-3.18c1.38-26.24,0.63-52.43-1.6-78.6c-0.23-2.67-1.24-3.17-3.67-3.15
		C227.82,138.01,215.7,137.95,203.58,137.95z M241.47,122.95c-0.81-5.05-1.49-9.73-2.31-14.39c-3.89-22.13-9.13-43.88-18.73-64.34
		c-4.31-9.18-9.25-18.01-17.28-24.57c-7.64-6.25-14.66-6.22-22.36-0.09c-5.96,4.75-10.15,10.95-13.78,17.53
		c-10.79,19.53-16.15,40.87-20.73,62.48c-0.37,1.76,0.41,2.41,1.78,3.1c6.1,3.1,11.35,7.61,13.39,14c1.94,6.07,5.37,6.45,10.64,6.39
		C195.05,122.8,218.01,122.95,241.47,122.95z M181.05,260.9c-11.99,0-23.98,0.04-35.97-0.04c-2.06-0.01-2.85,0.27-2.33,2.64
		c0.88,4.01,1.26,8.13,1.99,12.18c3.95,22,9.15,43.65,18.7,64c4.1,8.73,8.83,17.11,16.17,23.6c8.35,7.39,15.94,7.42,24.39,0.21
		c5.58-4.77,9.62-10.79,13.09-17.17c10.54-19.38,15.9-40.48,20.44-61.84c0.38-1.79-0.46-2.4-1.81-3.08
		c-7.72-3.91-12.95-10.05-15.67-18.21c-0.66-1.98-1.55-2.34-3.4-2.33C204.79,260.94,192.92,260.9,181.05,260.9z M354.86,260.9
		c-24.38,0-48.1,0.05-71.82-0.07c-2.35-0.01-2.79,1.1-3.44,2.84c-4.17,11.12-12,18.18-23.71,20.49c-2.71,0.54-3.55,1.74-4.03,4.24
		c-3.12,16.29-7.44,32.26-13.54,47.71c-4.12,10.42-9.1,20.4-16.36,30.17c27.28-4.9,51.35-15.02,73.06-30.69
		C321.71,316.33,341.51,291.53,354.86,260.9z M222.09,17.61c8.56,11.75,14.14,23.92,18.67,36.63c7.54,21.11,12.15,42.91,15.17,65.06
		c0.39,2.85,1.22,3.76,4.29,3.75c30.36-0.15,60.72-0.09,91.08-0.11c1.05,0,2.18,0.36,3.39-0.44c-4.64-11.08-10.54-21.42-17.26-31.32
		c-1.33-1.97-2.52-0.79-3.82-0.33c-12.64,4.43-24.08,2.18-33.46-7.24c-9.38-9.42-11.69-20.92-6.99-33.45c0.9-2.4,0.2-3.24-1.53-4.42
		c-11.82-7.99-24.34-14.6-37.72-19.59C243.85,22.39,233.57,19.54,222.09,17.61z M29.47,260.9c-0.07,0.44-0.21,0.72-0.12,0.91
		c4.6,10.81,10.37,20.98,16.96,30.7c1.26,1.86,2.33,1.09,3.75,0.59c12.59-4.52,24.06-2.37,33.5,7c9.43,9.36,11.81,20.83,7.22,33.41
		c-0.88,2.41-0.4,3.38,1.58,4.71c14.35,9.68,29.7,17.27,46.23,22.44c7.34,2.3,14.76,4.29,22.83,5.43c-0.46-0.85-0.64-1.29-0.91-1.67
		c-7.62-10.48-12.9-22.16-17.24-34.27c-7.43-20.73-12.1-42.14-15.12-63.92c-0.74-5.33-0.69-5.34-6.18-5.34c-24.99,0-49.97,0-74.96,0
		C41.14,260.9,35.29,260.9,29.47,260.9z M305.89,61.41c-0.02,9.04,7.32,16.48,16.33,16.55c9.18,0.07,16.7-7.43,16.64-16.62
		c-0.06-9.01-7.49-16.37-16.52-16.36C313.32,45,305.92,52.39,305.89,61.41z M116.96,130.37c-0.03,9.03,7.31,16.49,16.31,16.57
		c9.03,0.08,16.54-7.24,16.66-16.23c0.12-9.19-7.33-16.76-16.5-16.75C124.4,113.97,116.99,121.34,116.96,130.37z M61.75,305.89
		c-9.05-0.13-16.59,7.12-16.76,16.11c-0.17,9.21,7.22,16.82,16.39,16.86c9.03,0.05,16.49-7.29,16.58-16.3
		C78.05,313.52,70.75,306.02,61.75,305.89z M266.31,253.4c0-9.13-7.24-16.45-16.32-16.49c-9-0.04-16.47,7.28-16.62,16.3
		c-0.15,9.06,7.48,16.73,16.62,16.68C259.05,269.85,266.31,262.52,266.31,253.4z"/>
	<path class="st0" d="M67.48,63.18c-0.09,4.2-3.6,7.48-7.81,7.3c-4-0.17-7.25-3.64-7.16-7.62c0.09-3.96,3.53-7.33,7.48-7.34
		C64.17,55.5,67.57,58.99,67.48,63.18z"/>
</g>
</svg>
